<svg width="350" height="46" viewBox="0 0 350 46" version="1.1" xmlns="http://www.w3.org/2000/svg" xmlns:xlink="http://www.w3.org/1999/xlink">
<title>umsichten</title>
<g id="Canvas" transform="translate(322 -182)">
<g id="Page 1">
<g id="gUm">
<use xlink:href="#path0_fill" transform="translate(-322 182.707)" />
</g>
<g id="gSichten">
<use xlink:href="#path1_fill" transform="translate(-230 182)" />
</g>
</g>
</g>
<defs>
<path id="path0_fill" fill-rule="evenodd" d="M 27.3473 0L 27.3473 30.1089C 27.3473 33.8127 26.2893 36.704 24.177 38.7794C 22.0612 40.8548 19.1836 41.8942 15.5409 41.8942C 11.8981 41.8942 9.01349 40.8619 6.89059 38.7936C 4.76417 36.7288 3.70272 33.8233 3.70272 30.077L 3.70272 0L 0 0L 0 30.6269C 0.102266 35.1466 1.55162 38.6836 4.35511 41.2379C 7.1586 43.7922 10.886 45.0694 15.5409 45.0694C 18.5947 45.0694 21.303 44.4734 23.6586 43.2849C 26.0178 42.0929 27.8445 40.3865 29.1387 38.1692C 30.4329 35.9519 31.0923 33.3444 31.1099 30.3537L 31.1099 0L 27.3473 0ZM 39.9683 0L 39.9683 44.4592L 43.7027 44.4592L 43.7027 24.979L 43.3959 5.40308L 59.7867 44.4592L 62.6712 44.4592L 79.1219 5.25053L 78.8186 25.0996L 78.8186 44.4592L 82.5531 44.4592L 82.5531 0L 77.5738 0L 61.2148 39.237L 44.9158 0L 39.9683 0Z"/>
<path id="path1_fill" fill-rule="evenodd" d="M 236.802 7.66645C 238.431 6.58796 240.458 6.06645 242.888 6.10903C 245.498 6.14805 247.501 6.85049 248.897 8.21633C 250.294 9.57863 250.911 11.5227 250.748 14.0487L 258.246 14.0771C 258.348 11.3702 257.77 8.95424 256.514 6.82565C 255.262 4.70061 253.457 3.03676 251.098 1.8341C 248.742 0.63145 246.115 0.0212541 243.22 0.00351584C 240.166 -0.039056 237.369 0.45052 234.83 1.4687C 232.288 2.48687 230.302 3.92722 228.864 5.78974C 227.428 7.65226 226.607 9.83406 226.406 12.3387C 226.184 15.411 226.995 18.0753 228.835 20.3245C 230.676 22.5737 233.913 24.532 238.547 26.2029L 240.822 27.0224C 244.669 28.5018 246.39 30.5275 245.984 33.0996C 245.699 35.065 244.743 36.6259 243.114 37.7825C 241.485 38.9355 239.489 39.4924 237.119 39.4534C 234.774 39.3931 233.018 38.7261 231.854 37.4561C 230.69 36.1825 230.179 34.3945 230.32 32.0956L 222.855 32.0637C 222.774 34.6889 223.299 37.0268 224.434 39.0703C 225.566 41.1173 227.206 42.7137 229.35 43.8667C 231.494 45.0161 233.945 45.6228 236.696 45.6831C 239.549 45.7434 242.239 45.2538 244.768 44.2179C 247.3 43.1784 249.338 41.6991 250.886 39.7727C 252.434 37.8499 253.287 35.6255 253.45 33.1031C 253.633 30.1905 252.762 27.6362 250.84 25.4366C 248.918 23.2406 245.67 21.3356 241.097 19.7285L 238.639 18.8132C 235.017 17.387 233.427 15.2088 233.871 12.2784C 234.196 10.2811 235.172 8.74493 236.802 7.66645ZM 204.486 45.0729L 211.951 45.0729L 219.631 0.613708L 212.166 0.613708L 204.486 45.0729ZM 173.52 15.0562C 175.118 8.9507 178.739 6.00615 184.385 6.22965C 186.166 6.29351 187.633 6.80437 188.786 7.77288C 189.939 8.73784 190.743 10.1427 191.202 11.9804C 191.657 13.8216 191.801 15.7906 191.639 17.8837L 191.367 20.9985L 190.761 25.0535C 189.992 29.7932 188.493 33.4011 186.268 35.8845C 184.043 38.3643 181.278 39.5563 177.981 39.4534C 175.573 39.3931 173.757 38.6552 172.533 37.2397C 171.309 35.8242 170.646 33.5288 170.544 30.3537L 163.11 30.3537C 163.273 35.0969 164.63 38.8184 167.19 41.5146C 169.751 44.2108 173.228 45.6015 177.618 45.6831C 181.098 45.7434 184.258 44.97 187.104 43.3629C 189.946 41.7523 192.344 39.3612 194.294 36.186C 196.248 33.0109 197.57 29.4242 198.258 25.4225C 198.946 21.4242 199.228 18.2633 199.108 15.9431C 198.967 12.846 198.297 10.0718 197.105 7.62033C 195.909 5.1689 194.255 3.29929 192.14 2.01859C 190.027 0.734335 187.562 0.0638289 184.752 0.00351883C 179.875 -0.0780772 175.735 1.25939 172.335 4.01591C 168.936 6.77599 166.862 10.4762 166.115 15.1165L 173.52 15.0562ZM 118.18 45.0729L 125.678 45.0729L 128.865 26.5683L 147.989 26.5683L 144.769 45.0729L 152.267 45.0729L 159.947 0.613708L 152.45 0.613708L 149.051 20.3387L 129.927 20.3387L 133.326 0.613708L 125.861 0.613708L 118.18 45.0729ZM 77.4434 45.0729L 111.498 45.0729L 112.591 38.8432L 99.3247 38.8432L 105.944 0.613708L 98.4748 0.613708L 91.891 38.8432L 78.5365 38.8432L 77.4434 45.0729ZM 48.0861 26.5683L 65.7216 26.5683L 63.5952 38.8432L 43.2302 38.8432L 42.137 45.0729L 70.0309 45.0729L 77.6796 0.613708L 49.6024 0.613708L 48.541 6.84339L 69.121 6.84339L 66.7513 20.4593L 49.1475 20.4593L 48.0861 26.5683ZM 0 45.0729L 7.46892 45.0729L 12.9913 13.1014L 26.8007 45.0729L 34.058 45.0729L 41.735 0.613708L 34.2379 0.613708L 28.7437 32.461L 14.9343 0.613708L 7.68051 0.613708L 0 45.0729Z"/>
</defs>
</svg>
